<svg width="20" height="20" viewBox="0 0 20 20" fill="none" xmlns="http://www.w3.org/2000/svg">
<path fill-rule="evenodd" clip-rule="evenodd" d="M8.33366 1.66666H11.867C13.6351 1.66666 15.3308 2.36904 16.581 3.61928C17.8313 4.86952 18.5337 6.56521 18.5337 8.33332V11.8667C18.5337 15.5486 15.5489 18.5333 11.867 18.5333H8.33366C4.65176 18.5333 1.66699 15.5486 1.66699 11.8667V8.33332C1.66699 4.65142 4.65176 1.66666 8.33366 1.66666ZM10.1003 15.1C10.5606 15.1 10.9337 14.7269 10.9337 14.2667V10.1C10.9349 9.87849 10.848 9.66559 10.692 9.50832L7.35866 6.17499C7.14728 5.96361 6.83918 5.88105 6.55043 5.95842C6.26167 6.0358 6.03613 6.26134 5.95876 6.55009C5.88139 6.83885 5.96394 7.14694 6.17533 7.35832L9.26699 10.4417V14.2667C9.26699 14.7269 9.64009 15.1 10.1003 15.1Z" fill="white"/>
</svg>
