<svg width="29" height="29" viewBox="0 0 29 29" fill="none" xmlns="http://www.w3.org/2000/svg">
<path fill-rule="evenodd" clip-rule="evenodd" d="M8.68414 18.905L9.77914 13.79C9.93855 13.0792 10.2976 12.4287 10.8141 11.915L20.8191 2C21.8337 0.966463 23.2112 0.369174 24.6591 0.335C25.7511 0.319354 26.8042 0.740561 27.5841 1.505C29.2884 3.5187 29.0684 6.52583 27.0891 8.27L17.0841 18.275C16.5704 18.7915 15.9199 19.1506 15.2091 19.31L10.0941 20.405H9.80913C9.4352 20.4193 9.07805 20.2492 8.85352 19.9498C8.629 19.6505 8.56569 19.26 8.68414 18.905ZM12.4041 13.52C12.194 13.7237 12.048 13.9844 11.9841 14.27L11.2491 17.765L14.7441 17.015C15.0298 16.9512 15.2905 16.8052 15.4941 16.595L25.4991 6.59C26.5952 5.71253 26.8127 4.13072 25.9941 2.99C25.6357 2.64756 25.1546 2.46376 24.6591 2.48C23.805 2.5143 22.9979 2.8802 22.4091 3.5L12.4041 13.52Z" fill="#BEC5CC"/>
<path d="M26.8641 12.395C26.2462 12.4031 25.7472 12.9021 25.7391 13.52V22.055C25.7593 23.2614 25.294 24.4254 24.4479 25.2856C23.6018 26.1458 22.4457 26.6302 21.2391 26.63H6.94414C4.45019 26.5811 2.45181 24.5494 2.44414 22.055V7.82C2.48509 5.32263 4.52144 3.31966 7.01914 3.32H15.5541C16.1755 3.32 16.6791 2.81632 16.6791 2.195C16.6791 1.57368 16.1755 1.07 15.5541 1.07H6.94414C3.20389 1.06977 0.160242 4.07998 0.119141 7.82V22.055C0.119141 25.8243 3.1748 28.88 6.94414 28.88H21.1791C24.9426 28.8717 27.9891 25.8185 27.9891 22.055V13.52C27.9811 12.9021 27.4821 12.4031 26.8641 12.395Z" fill="#BEC5CC"/>
</svg>
