<svg width="36" height="36" viewBox="0 0 36 36" fill="none" xmlns="http://www.w3.org/2000/svg">
<path fill-rule="evenodd" clip-rule="evenodd" d="M11.6851 22.905L12.7801 17.79C12.9395 17.0792 13.2986 16.4287 13.8151 15.915L23.8201 6.00002C24.8347 4.96648 26.2122 4.36919 27.6601 4.33502C28.7521 4.31937 29.8051 4.74058 30.5851 5.50502C32.2894 7.51871 32.0694 10.5258 30.0901 12.27L20.0851 22.275C19.5714 22.7915 18.9209 23.1506 18.2101 23.31L13.0951 24.405H12.8101C12.4362 24.4193 12.079 24.2492 11.8545 23.9499C11.63 23.6505 11.5667 23.26 11.6851 22.905ZM15.4051 17.52C15.1949 17.7237 15.0489 17.9844 14.9851 18.27L14.2501 21.765L17.7451 21.015C18.0307 20.9512 18.2914 20.8052 18.4951 20.595L28.5001 10.59C29.5961 9.71255 29.8136 8.13073 28.9951 6.99002C28.6367 6.64758 28.1556 6.46377 27.6601 6.48002C26.806 6.51431 25.9988 6.88022 25.4101 7.50002L15.4051 17.52Z" fill="#0071FF"/>
<path d="M29.8651 16.395C29.2472 16.4031 28.7482 16.9021 28.7401 17.52V26.055C28.7602 27.2614 28.295 28.4254 27.4489 29.2856C26.6028 30.1458 25.4467 30.6302 24.2401 30.63H9.94512C7.45117 30.5811 5.45279 28.5494 5.44512 26.055V11.82C5.48606 9.32265 7.52242 7.31968 10.0201 7.32002H18.5551C19.1764 7.32002 19.6801 6.81634 19.6801 6.19502C19.6801 5.5737 19.1764 5.07002 18.5551 5.07002H9.94512C6.20487 5.06979 3.16122 8.07999 3.12012 11.82V26.055C3.12012 29.8244 6.17577 32.88 9.94512 32.88H24.1801C27.9436 32.8717 30.9901 29.8185 30.9901 26.055V17.52C30.982 16.9021 30.4831 16.4031 29.8651 16.395Z" fill="#0071FF"/>
</svg>
