<svg width="19" height="14" viewBox="0 0 19 14" fill="none" xmlns="http://www.w3.org/2000/svg">
<path fill-rule="evenodd" clip-rule="evenodd" d="M11.568 5.3674C12.469 5.34576 13.2738 4.79856 13.6251 3.96873C13.7001 4.00035 13.7803 4.01778 13.8617 4.02015H17.976C18.402 4.02015 18.7474 3.67482 18.7474 3.24883C18.7474 2.82284 18.402 2.4775 17.976 2.4775H13.9131C13.8687 2.47169 13.8238 2.47169 13.7794 2.4775C13.4848 1.32011 12.3511 0.582508 11.1735 0.78198C9.99577 0.981452 9.16833 2.05122 9.27139 3.24106C9.37445 4.4309 10.3735 5.34249 11.568 5.33655V5.3674ZM11.568 2.33352C11.9827 2.33352 12.3188 2.66965 12.3188 3.08428C12.3188 3.49891 11.9827 3.83504 11.568 3.83504C11.1533 3.83504 10.8171 3.49891 10.8171 3.08428C10.8171 2.66965 11.1533 2.33352 11.568 2.33352Z" fill="#0164FF"/>
<path d="M1.57026 2.4775H7.74169C8.16773 2.4775 8.51311 2.82284 8.51311 3.24883C8.51311 3.67482 8.16773 4.02015 7.74169 4.02015H1.57026C1.14421 4.02015 0.798828 3.67482 0.798828 3.24883C0.798828 2.82284 1.14421 2.4775 1.57026 2.4775Z" fill="#0164FF"/>
<path fill-rule="evenodd" clip-rule="evenodd" d="M3.53483 10.705C3.857 9.79384 4.71801 9.18421 5.68454 9.18289V9.16232C6.84767 9.16084 7.82778 10.0301 7.96513 11.1849C8.10249 12.3397 7.3536 13.4145 6.22257 13.6858C5.09153 13.9572 3.93645 13.3391 3.53483 12.2476H1.57026C1.14421 12.2476 0.798828 11.9023 0.798828 11.4763C0.798828 11.0503 1.14421 10.705 1.57026 10.705H3.53483ZM4.93493 11.5304C4.94199 11.9395 5.27535 12.2676 5.68454 12.2682V12.2271C6.09923 12.2271 6.4354 11.8909 6.4354 11.4763C6.41298 11.0678 6.06754 10.7524 5.65861 10.7672C5.24968 10.7819 4.92786 11.1213 4.93493 11.5304Z" fill="#0164FF"/>
<path d="M9.79883 10.705H18.0274C18.4534 10.705 18.7988 11.0503 18.7988 11.4763C18.7988 11.9023 18.4534 12.2476 18.0274 12.2476H9.79883C9.37278 12.2476 9.0274 11.9023 9.0274 11.4763C9.0274 11.0503 9.37278 10.705 9.79883 10.705Z" fill="#0164FF"/>
</svg>
