<svg width="17" height="17" viewBox="0 0 17 17" fill="none" xmlns="http://www.w3.org/2000/svg">
<path fill-rule="evenodd" clip-rule="evenodd" d="M10.2806 0H6.71937C3.00836 0 0 3.00836 0 6.71937V10.2806C0 13.9916 3.00836 17 6.71937 17H10.2806C13.9916 17 17 13.9916 17 10.2806V6.71937C17 4.93728 16.2921 3.22818 15.0319 1.96806C13.7718 0.707931 12.0627 0 10.2806 0ZM6.58438 11.1952C6.71228 11.3001 6.87252 11.3574 7.0379 11.3575C7.21866 11.3585 7.39292 11.2902 7.52483 11.1666L12.7379 6.345C12.9673 6.18666 13.084 5.90954 13.0369 5.63476C12.9899 5.35999 12.7876 5.1375 12.5185 5.06454C12.2495 4.99158 11.9625 5.0814 11.7831 5.29476L7.00925 9.69147L5.35273 8.3357C5.04603 8.09907 4.60675 8.14925 4.36131 8.44894C4.11587 8.74864 4.15326 9.18919 4.4457 9.44323L6.58438 11.1952Z" fill="#25D46B"/>
</svg>
