<svg width="20" height="21" viewBox="0 0 20 21" fill="none" xmlns="http://www.w3.org/2000/svg">
<path fill-rule="evenodd" clip-rule="evenodd" d="M18.29 5.50048L12.73 1.39048C11.1036 0.203173 8.89636 0.203173 7.27 1.39048L1.72 5.50048C0.645442 6.27462 0.00610336 7.51612 0 8.84048V16.2705C0.0600245 18.6637 2.04665 20.5564 4.44 20.5005H15.56C17.9534 20.5564 19.94 18.6637 20 16.2705V8.83048C19.9914 7.51185 19.3567 6.27576 18.29 5.50048ZM18.5 16.2705C18.4404 17.8354 17.1251 19.0568 15.56 19.0005H4.44C2.87698 19.0512 1.56502 17.833 1.5 16.2705V8.84048C1.50534 7.9904 1.91817 7.19448 2.61 6.70048L8.16 2.60048C9.25609 1.80006 10.7439 1.80006 11.84 2.60048L17.39 6.71048C18.0812 7.1959 18.4948 7.98583 18.5 8.83048V16.2705ZM5.5 14.2505H14.5C14.9142 14.2505 15.25 14.5863 15.25 15.0005C15.25 15.4147 14.9142 15.7505 14.5 15.7505H5.5C5.08579 15.7505 4.75 15.4147 4.75 15.0005C4.75 14.5863 5.08579 14.2505 5.5 14.2505Z" fill="black"/>
</svg>
