<svg width="17" height="17" viewBox="0 0 17 17" fill="none" xmlns="http://www.w3.org/2000/svg">
<path fill-rule="evenodd" clip-rule="evenodd" d="M10.2726 0H6.71412C3.00601 0 0 3.00836 0 6.71937V10.2806C0 13.9916 3.00601 17 6.71412 17H10.2726C13.9807 17 16.9867 13.9916 16.9867 10.2806V6.71937C16.9867 4.93728 16.2793 3.22818 15.0202 1.96806C13.7611 0.707931 12.0533 0 10.2726 0ZM6.57924 11.1952C6.70703 11.3001 6.86715 11.3574 7.0324 11.3575C7.21302 11.3585 7.38715 11.2902 7.51895 11.1666L12.7279 6.345C12.9572 6.18666 13.0738 5.90954 13.0268 5.63476C12.9797 5.35999 12.7776 5.1375 12.5088 5.06454C12.2399 4.99158 11.9532 5.0814 11.7739 5.29476L7.00378 9.69147L5.34855 8.3357C5.04208 8.09907 4.60315 8.14925 4.3579 8.44894C4.11265 8.74864 4.15001 9.18919 4.44222 9.44323L6.57924 11.1952Z" fill="white"/>
</svg>
