<svg width="17" height="17" viewBox="0 0 17 17" fill="none" xmlns="http://www.w3.org/2000/svg">
<path fill-rule="evenodd" clip-rule="evenodd" d="M15.261 10.4946C15.2635 11.0041 15.4875 11.4873 15.8747 11.8184C17.1986 13.002 16.2605 15.0273 14.3843 15.0273H11.0527C10.6209 16.206 9.50235 16.9924 8.24711 17C6.98776 17.0054 5.86256 16.2142 5.44154 15.0273H2.10993C0.233711 15.0273 -0.7044 13.002 0.619476 11.8184C1.00667 11.4873 1.23067 11.0041 1.23319 10.4946V6.25992C1.23319 2.80557 4.37192 0 8.24711 0C12.1223 0 15.261 2.80557 15.261 6.25992V10.4946ZM6.91446 15.0273C7.23352 15.4403 7.72526 15.6829 8.24711 15.6849C8.75658 15.6723 9.23325 15.4307 9.54468 15.0273H6.91446Z" fill="#5A6577"/>
</svg>
