<svg width="17" height="21" viewBox="0 0 17 21" fill="none" xmlns="http://www.w3.org/2000/svg">
<path fill-rule="evenodd" clip-rule="evenodd" d="M2.93914 9.91999C3.55237 10.194 4.05591 10.6658 4.36914 11.26L7.00914 16.07C7.20676 16.4278 7.30677 16.8313 7.29914 17.24L7.24914 19.24C7.2475 19.6528 7.02663 20.0336 6.66914 20.24C6.50589 20.3264 6.32382 20.371 6.13914 20.37C5.91658 20.3691 5.69859 20.3068 5.50914 20.19L3.82914 19.19C3.48012 18.9745 3.19389 18.671 2.99914 18.31L0.369138 13.5C0.0377836 12.8856 -0.0750467 12.1769 0.0491377 11.49C0.125491 10.8415 0.493737 10.2634 1.04914 9.91999C1.64428 9.62363 2.34399 9.62363 2.93914 9.91999ZM4.59914 17.86L5.75914 18.56L5.74914 17.18C5.74575 17.0333 5.70808 16.8895 5.63914 16.76L3.00914 11.95C2.85611 11.6472 2.60618 11.4043 2.29914 11.26C2.19658 11.2088 2.08376 11.1814 1.96914 11.18C1.88552 11.1808 1.80328 11.2013 1.72914 11.24C1.56336 11.3511 1.45676 11.5312 1.43914 11.73C1.39344 12.0763 1.46377 12.4279 1.63914 12.73L4.26914 17.5C4.34002 17.6507 4.45513 17.7763 4.59914 17.86Z" fill="black"/>
<path fill-rule="evenodd" clip-rule="evenodd" d="M9.58905 0.84999L16.589 7.84999C16.7373 7.99777 16.8171 8.2008 16.809 8.40999V15.41C16.809 16.6698 16.3086 17.8779 15.4178 18.7687C14.527 19.6595 13.3188 20.16 12.059 20.16H9.18904C8.77483 20.16 8.43904 19.8242 8.43904 19.41C8.43904 18.9958 8.77483 18.66 9.18904 18.66H12.059C13.8517 18.6545 15.3036 17.2026 15.309 15.41V9.15999H11.059C9.54254 9.1545 8.31453 7.9265 8.30904 6.40999V2.15999H6.05904C4.26412 2.15999 2.80905 3.61506 2.80905 5.40999V8.05999C2.80905 8.4742 2.47326 8.80999 2.05905 8.80999C1.64483 8.80999 1.30905 8.4742 1.30905 8.05999V5.40999C1.30106 4.14502 1.79797 2.92912 2.68964 2.03182C3.5813 1.13453 4.79405 0.629964 6.05904 0.62999H9.05904C9.25789 0.630165 9.44853 0.709297 9.58905 0.84999ZM9.80905 3.18999V6.40999C9.80905 7.10035 10.3687 7.65999 11.059 7.65999H14.279L9.80905 3.18999Z" fill="black"/>
</svg>
