<svg width="22" height="14" viewBox="0 0 22 14" fill="none" xmlns="http://www.w3.org/2000/svg">
<path d="M20.72 6.07234H17.84C17.1124 6.06878 16.4136 6.35691 15.9 6.87234L11.48 11.2923V1.74234C11.4769 1.23659 11.1693 0.782548 10.7008 0.592073C10.2323 0.401598 9.69513 0.512226 9.34 0.872338L4.51 5.70234C4.27537 5.94064 3.95442 6.07407 3.62 6.07234H0.75C0.335786 6.07234 0 6.40813 0 6.82234C0 7.23655 0.335786 7.57234 0.75 7.57234H3.62C4.36939 7.58726 5.09219 7.29453 5.62 6.76234L9.96 2.35234V11.9023C9.95897 12.4066 10.2634 12.8612 10.73 13.0523C10.8812 13.1189 11.0448 13.153 11.21 13.1523C11.5412 13.1525 11.8584 13.0191 12.09 12.7823L16.96 7.93234C17.1945 7.70111 17.5107 7.57174 17.84 7.57234H20.72C21.1342 7.57234 21.47 7.23655 21.47 6.82234C21.47 6.40813 21.1342 6.07234 20.72 6.07234Z" fill="black"/>
</svg>
