<svg width="20" height="20" viewBox="0 0 20 20" fill="none" xmlns="http://www.w3.org/2000/svg">
<path fill-rule="evenodd" clip-rule="evenodd" d="M4 0H16C18.2091 0 20 1.79086 20 4V16C20 18.2091 18.2091 20 16 20H4C1.79086 20 0 18.2091 0 16V4C0 1.79086 1.79086 0 4 0ZM17.7678 17.7678C18.2366 17.2989 18.5 16.663 18.5 16V4C18.5 3.33696 18.2366 2.70107 17.7678 2.23223C17.2989 1.76339 16.663 1.5 16 1.5H4C2.61929 1.5 1.5 2.61929 1.5 4V16C1.5 16.663 1.76339 17.2989 2.23223 17.7678C2.70107 18.2366 3.33696 18.5 4 18.5H16C16.663 18.5 17.2989 18.2366 17.7678 17.7678Z" fill="black"/>
<path d="M8.3797 13.5221C8.1828 13.522 7.99201 13.4537 7.83975 13.3289L5.29345 11.243C4.94528 10.9405 4.90076 10.416 5.19298 10.0592C5.4852 9.70237 6.0082 9.64263 6.37335 9.92436L8.34559 11.5385L14.0293 6.30385C14.2429 6.04983 14.5846 5.94288 14.9049 6.02975C15.2252 6.11662 15.466 6.38151 15.5221 6.70865C15.5781 7.0358 15.4392 7.36573 15.166 7.55426L8.95943 13.2948C8.80239 13.4419 8.59491 13.5233 8.3797 13.5221Z" fill="black"/>
</svg>
