<svg width="20" height="22" viewBox="0 0 20 22" fill="none" xmlns="http://www.w3.org/2000/svg">
<path fill-rule="evenodd" clip-rule="evenodd" d="M16.75 7.05V3.2C16.7227 1.70078 15.4995 0.499752 14 0.5H6C4.50053 0.499752 3.27726 1.70078 3.25 3.2V3.65C1.34434 4.12617 0.00551041 5.83576 0 7.8V16.8C0.00549833 19.167 1.92298 21.0845 4.29 21.09H15.73C18.0892 21.0735 19.9946 19.1593 20 16.8V11.2C19.9945 9.23576 18.6557 7.52617 16.75 7.05ZM6 1.95H14C14.6904 1.95 15.25 2.50964 15.25 3.2V6.91H11.7C11.4736 6.91 11.29 6.72644 11.29 6.5C11.29 4.84315 9.94685 3.5 8.29 3.5H4.75V3.2C4.75 2.50964 5.30964 1.95 6 1.95ZM15.73 19.8C17.3869 19.8 18.73 18.4569 18.73 16.8L18.7 11.2C18.7 9.54315 17.3569 8.2 15.7 8.2H11.7C10.7611 8.2 10 7.43888 10 6.5C10.0001 6.04389 9.81685 5.60687 9.49152 5.28719C9.16619 4.9675 8.72604 4.79195 8.27 4.8H4.27C2.61315 4.8 1.27 6.14315 1.27 7.8V16.8C1.27 18.4569 2.61315 19.8 4.27 19.8H15.73Z" fill="#29364B"/>
</svg>
