<svg width="19" height="20" viewBox="0 0 19 20" fill="none" xmlns="http://www.w3.org/2000/svg">
<path fill-rule="evenodd" clip-rule="evenodd" d="M18.1066 13.98C17.6623 13.6 17.4065 13.0446 17.4066 12.46V7.64C17.4066 3.69 13.8266 0.5 9.40657 0.5C4.98657 0.5 1.40657 3.69 1.40657 7.64V12.46C1.40661 13.0446 1.15084 13.6 0.706568 13.98C-0.803432 15.33 0.266568 17.63 2.40657 17.63H6.20657C6.69141 18.9804 7.97177 19.8811 9.40657 19.8811C10.8414 19.8811 12.1217 18.9804 12.6066 17.63H16.4066C18.5466 17.63 19.6166 15.33 18.1066 13.98ZM9.40657 18.38C8.81136 18.3778 8.25048 18.101 7.88657 17.63H10.8866C10.5342 18.0936 9.98876 18.37 9.40657 18.38ZM16.4166 16.13C16.7801 16.1629 17.1263 15.968 17.2866 15.64C17.3644 15.4424 17.2935 15.2173 17.1166 15.1C16.3631 14.4279 15.9275 13.4696 15.9166 12.46V7.64C15.9166 4.53 12.9966 2 9.41657 2C5.83657 2 2.91657 4.53 2.91657 7.64V12.46C2.9056 13.4696 2.47001 14.4279 1.71657 15.1C1.53589 15.2144 1.46065 15.4401 1.53657 15.64C1.69686 15.968 2.04301 16.1629 2.40657 16.13H16.4166Z" fill="black"/>
</svg>
