<svg width="27" height="27" viewBox="0 0 27 27" fill="none" xmlns="http://www.w3.org/2000/svg">
<path fill-rule="evenodd" clip-rule="evenodd" d="M5.4 0H21.6C24.5823 0 27 2.41766 27 5.4V21.6C27 24.5823 24.5823 27 21.6 27H5.4C2.41766 27 0 24.5823 0 21.6V5.4C0 2.41766 2.41766 0 5.4 0ZM23.9865 23.9865C24.6194 23.3535 24.975 22.4951 24.975 21.6V5.4C24.975 4.50489 24.6194 3.64645 23.9865 3.01351C23.3535 2.38058 22.4951 2.025 21.6 2.025H5.4C3.53604 2.025 2.025 3.53604 2.025 5.4V21.6C2.025 22.4951 2.38058 23.3535 3.01351 23.9865C3.64645 24.6194 4.50489 24.975 5.4 24.975H21.6C22.4951 24.975 23.3535 24.6194 23.9865 23.9865Z" fill="#469AEE"/>
<path d="M11.3126 18.2549C11.0468 18.2547 10.7892 18.1625 10.5837 17.994L7.14616 15.178C6.67613 14.7697 6.61603 14.0616 7.01053 13.5799C7.40503 13.0982 8.11107 13.0175 8.60403 13.3979L11.2666 15.577L18.9395 8.51019C19.2279 8.16727 19.6891 8.02289 20.1216 8.14016C20.5541 8.25743 20.8792 8.61503 20.9548 9.05668C21.0305 9.49833 20.8429 9.94373 20.4741 10.1982L12.0952 17.948C11.8832 18.1466 11.6031 18.2565 11.3126 18.2549Z" fill="#469AEE"/>
</svg>
