<svg width="20" height="20" viewBox="0 0 20 20" fill="none" xmlns="http://www.w3.org/2000/svg">
<path fill-rule="evenodd" clip-rule="evenodd" d="M16.5015 4.625C16.502 5.328 16.2507 6.00794 15.7931 6.54167L14.2681 8.275C13.3437 9.37299 13.3437 10.977 14.2681 12.075L15.7598 13.85C16.4906 14.7226 16.6506 15.9391 16.1704 16.971C15.6901 18.0029 14.6563 18.6639 13.5181 18.6667H7.10147C5.9618 18.6671 4.92504 18.0074 4.4427 16.9748C3.96035 15.9422 4.11975 14.7237 4.85147 13.85L6.35981 12.05C7.2758 10.9615 7.2758 9.37182 6.35981 8.28333L4.85147 6.48333C4.11975 5.60959 3.96035 4.3911 4.4427 3.35853C4.92504 2.32596 5.9618 1.66623 7.10147 1.66667H13.5681C14.3505 1.66664 15.1004 1.97911 15.6512 2.53464C16.202 3.09017 16.5081 3.84271 16.5015 4.625ZM8.01814 15.3833H12.6515C12.875 15.4102 13.094 15.306 13.2142 15.1157C13.3345 14.9254 13.3345 14.6829 13.2142 14.4926C13.094 14.3023 12.875 14.1981 12.6515 14.225H8.01814C7.79464 14.1981 7.57562 14.3023 7.45539 14.4926C7.33515 14.6829 7.33515 14.9254 7.45539 15.1157C7.57562 15.306 7.79464 15.4102 8.01814 15.3833Z" fill="white"/>
</svg>
