<svg width="24" height="30" viewBox="0 0 24 30" fill="none" xmlns="http://www.w3.org/2000/svg">
<path d="M22.185 7.5C21.5305 7.5 21 8.03054 21 8.685V21.945C21 24.7368 18.7368 27 15.945 27H7.425C4.6332 27 2.37 24.7368 2.37 21.945V8.685C2.37 8.03054 1.83946 7.5 1.185 7.5C0.530543 7.5 1.95044e-08 8.03054 0 8.685V21.945C0.0411302 26.0578 3.38698 29.3702 7.5 29.37H16.02C20.1038 29.3294 23.4044 26.0288 23.445 21.945V8.685C23.4457 8.35728 23.3106 8.04392 23.0718 7.81941C22.8331 7.59489 22.5121 7.47926 22.185 7.5Z" fill="#D00000"/>
<path fill-rule="evenodd" clip-rule="evenodd" d="M22.185 5.37H1.185C0.530543 5.37 0 4.83946 0 4.185C0 3.53054 0.530543 3 1.185 3H5.16L6.93 1.08C7.60661 0.392116 8.53013 0.00326379 9.495 2.75236e-10H13.875C14.8258 -1.17698e-05 15.7377 0.377685 16.41 1.05L18.21 3H22.185C22.8395 3 23.37 3.53054 23.37 4.185C23.37 4.83946 22.8395 5.37 22.185 5.37ZM13.875 2.37H9.495C9.19513 2.3701 8.90616 2.48248 8.685 2.685L8.4 2.985H14.97L14.685 2.685C14.4655 2.47989 14.1754 2.36711 13.875 2.37Z" fill="#D00000"/>
<path d="M6.06 10.185V14.685C6.06 15.3063 6.56368 15.81 7.185 15.81C7.80632 15.81 8.31 15.3063 8.31 14.685V10.185C8.31 9.56368 7.80632 9.06 7.185 9.06C6.56368 9.06 6.06 9.56368 6.06 10.185Z" fill="#D00000"/>
<path d="M10.56 10.185V22.185C10.56 22.8063 11.0637 23.31 11.685 23.31C12.3063 23.31 12.81 22.8063 12.81 22.185V10.185C12.81 9.56368 12.3063 9.06 11.685 9.06C11.0637 9.06 10.56 9.56368 10.56 10.185Z" fill="#D00000"/>
<path d="M15.06 10.185V14.685C15.06 15.3063 15.5637 15.81 16.185 15.81C16.8063 15.81 17.31 15.3063 17.31 14.685V10.185C17.31 9.56368 16.8063 9.06 16.185 9.06C15.5637 9.06 15.06 9.56368 15.06 10.185Z" fill="#D00000"/>
</svg>
