<svg width="36" height="36" viewBox="0 0 36 36" fill="none" xmlns="http://www.w3.org/2000/svg">
<path d="M28.185 10.5C27.5305 10.5 27 11.0305 27 11.685V24.945C27 27.7368 24.7368 30 21.945 30H13.425C10.6332 30 8.37 27.7368 8.37 24.945V11.685C8.37 11.0305 7.83946 10.5 7.185 10.5C6.53054 10.5 6 11.0305 6 11.685V24.945C6.04113 29.0578 9.38698 32.3702 13.5 32.37H22.02C26.1038 32.3294 29.4044 29.0288 29.445 24.945V11.685C29.4457 11.3573 29.3106 11.0439 29.0718 10.8194C28.8331 10.5949 28.5121 10.4793 28.185 10.5Z" fill="#29364B"/>
<path fill-rule="evenodd" clip-rule="evenodd" d="M28.185 8.37H7.185C6.53054 8.37 6 7.83946 6 7.185C6 6.53054 6.53054 6 7.185 6H11.16L12.93 4.08C13.6066 3.39212 14.5301 3.00326 15.495 3H19.875C20.8258 2.99999 21.7377 3.37768 22.41 4.05L24.21 6H28.185C28.8395 6 29.37 6.53054 29.37 7.185C29.37 7.83946 28.8395 8.37 28.185 8.37ZM19.875 5.37H15.495C15.1951 5.3701 14.9062 5.48248 14.685 5.685L14.4 5.985H20.97L20.685 5.685C20.4655 5.47989 20.1754 5.36711 19.875 5.37Z" fill="#29364B"/>
<path d="M12.06 13.185V17.685C12.06 18.3063 12.5637 18.81 13.185 18.81C13.8063 18.81 14.31 18.3063 14.31 17.685V13.185C14.31 12.5637 13.8063 12.06 13.185 12.06C12.5637 12.06 12.06 12.5637 12.06 13.185Z" fill="#29364B"/>
<path d="M16.56 13.185V25.185C16.56 25.8063 17.0637 26.31 17.685 26.31C18.3063 26.31 18.81 25.8063 18.81 25.185V13.185C18.81 12.5637 18.3063 12.06 17.685 12.06C17.0637 12.06 16.56 12.5637 16.56 13.185Z" fill="#29364B"/>
<path d="M21.06 13.185V17.685C21.06 18.3063 21.5637 18.81 22.185 18.81C22.8063 18.81 23.31 18.3063 23.31 17.685V13.185C23.31 12.5637 22.8063 12.06 22.185 12.06C21.5637 12.06 21.06 12.5637 21.06 13.185Z" fill="#29364B"/>
</svg>
